<svg width="191" height="95" viewBox="0 0 191 95" fill="none" xmlns="http://www.w3.org/2000/svg">
<path d="M32.8978 55.141C31.9012 55.141 30.9868 55.011 30.1548 54.751C29.3228 54.491 28.5732 54.1356 27.9058 53.685L28.6858 50.669C29.3272 51.0676 29.9772 51.3926 30.6358 51.644C31.3032 51.8953 32.0398 52.021 32.8458 52.021C33.8338 52.021 34.6182 51.761 35.1988 51.241C35.7795 50.721 36.0698 50.019 36.0698 49.135C36.0698 48.1816 35.7405 47.4363 35.0818 46.899C34.4232 46.3616 33.4698 46.093 32.2218 46.093C31.6498 46.093 31.0778 46.1276 30.5058 46.197C29.9425 46.2663 29.3792 46.353 28.8158 46.457L29.9858 36.603H38.5658L38.3578 39.827H32.4818L31.8578 44.871L30.6098 43.727C31.0258 43.6056 31.4592 43.5146 31.9098 43.454C32.3692 43.3933 32.8632 43.363 33.3918 43.363C34.5532 43.363 35.5758 43.5926 36.4598 44.052C37.3525 44.5026 38.0458 45.1613 38.5398 46.028C39.0425 46.886 39.2938 47.9216 39.2938 49.135C39.2938 50.383 39.0165 51.4576 38.4618 52.359C37.9158 53.2516 37.1618 53.9406 36.1998 54.426C35.2378 54.9026 34.1372 55.141 32.8978 55.141ZM49.7747 55.167C48.2407 55.167 46.8973 54.7683 45.7447 53.971C44.6007 53.165 43.708 52.0426 43.0667 50.604C42.4253 49.1566 42.1047 47.471 42.1047 45.547C42.1047 43.7096 42.4253 42.0933 43.0667 40.698C43.708 39.294 44.6007 38.202 45.7447 37.422C46.8973 36.6333 48.2407 36.239 49.7747 36.239C51.3173 36.239 52.6607 36.6333 53.8047 37.422C54.9573 38.2106 55.85 39.307 56.4827 40.711C57.124 42.1063 57.4447 43.7183 57.4447 45.547C57.4447 47.471 57.124 49.1566 56.4827 50.604C55.85 52.0426 54.9573 53.165 53.8047 53.971C52.6607 54.7683 51.3173 55.167 49.7747 55.167ZM49.7747 52.177C50.598 52.177 51.3347 51.9516 51.9847 51.501C52.6433 51.0503 53.1633 50.3396 53.5447 49.369C53.926 48.3896 54.1167 47.1156 54.1167 45.547C54.1167 43.389 53.7007 41.79 52.8687 40.75C52.0453 39.7013 51.014 39.177 49.7747 39.177C48.544 39.177 47.5127 39.697 46.6807 40.737C45.8487 41.7683 45.4327 43.3716 45.4327 45.547C45.4327 47.0983 45.6233 48.3636 46.0047 49.343C46.386 50.3136 46.9017 51.0286 47.5517 51.488C48.2103 51.9473 48.9513 52.177 49.7747 52.177ZM63.4781 52.307V48.823H59.9941V46.379H63.4781V42.895H66.1301V46.379H69.6141V48.823H66.1301V52.307H63.4781Z" fill="#181818"/>
<path d="M118.639 28.901V40.469H116.743V32.997C116.743 32.6983 116.759 32.3757 116.791 32.029L113.295 38.597C113.129 38.9117 112.876 39.069 112.535 39.069H112.231C111.889 39.069 111.636 38.9117 111.471 38.597L107.935 32.005C107.951 32.181 107.964 32.3543 107.975 32.525C107.985 32.6957 107.991 32.853 107.991 32.997V40.469H106.095V28.901H107.719C107.815 28.901 107.897 28.9037 107.967 28.909C108.036 28.9143 108.097 28.9277 108.151 28.949C108.209 28.9703 108.26 29.005 108.303 29.053C108.351 29.101 108.396 29.165 108.439 29.245L111.903 35.669C111.993 35.8397 112.076 36.0157 112.151 36.197C112.231 36.3783 112.308 36.565 112.383 36.757C112.457 36.5597 112.535 36.3703 112.615 36.189C112.695 36.0023 112.78 35.8237 112.871 35.653L116.287 29.245C116.329 29.165 116.375 29.101 116.423 29.053C116.471 29.005 116.521 28.9703 116.575 28.949C116.633 28.9277 116.697 28.9143 116.767 28.909C116.836 28.9037 116.919 28.901 117.015 28.901H118.639ZM125.041 36.965C124.47 36.9917 123.99 37.0423 123.601 37.117C123.211 37.1863 122.899 37.277 122.665 37.389C122.43 37.501 122.262 37.6317 122.161 37.781C122.059 37.9303 122.009 38.093 122.009 38.269C122.009 38.6157 122.11 38.8637 122.313 39.013C122.521 39.1623 122.79 39.237 123.121 39.237C123.526 39.237 123.875 39.165 124.169 39.021C124.467 38.8717 124.758 38.6477 125.041 38.349V36.965ZM120.513 33.405C121.457 32.541 122.593 32.109 123.921 32.109C124.401 32.109 124.83 32.189 125.209 32.349C125.587 32.5037 125.907 32.7223 126.169 33.005C126.43 33.2823 126.627 33.6157 126.761 34.005C126.899 34.3943 126.969 34.821 126.969 35.285V40.469H126.073C125.886 40.469 125.742 40.4423 125.641 40.389C125.539 40.3303 125.459 40.2157 125.401 40.045L125.225 39.453C125.017 39.6397 124.814 39.805 124.617 39.949C124.419 40.0877 124.214 40.205 124.001 40.301C123.787 40.397 123.558 40.469 123.313 40.517C123.073 40.5703 122.806 40.597 122.513 40.597C122.166 40.597 121.846 40.5517 121.553 40.461C121.259 40.365 121.006 40.2237 120.793 40.037C120.579 39.8503 120.414 39.6183 120.297 39.341C120.179 39.0637 120.121 38.741 120.121 38.373C120.121 38.165 120.155 37.9597 120.225 37.757C120.294 37.549 120.406 37.3517 120.561 37.165C120.721 36.9783 120.926 36.8023 121.177 36.637C121.427 36.4717 121.734 36.3277 122.097 36.205C122.465 36.0823 122.891 35.9837 123.377 35.909C123.862 35.829 124.417 35.781 125.041 35.765V35.285C125.041 34.7357 124.923 34.3303 124.689 34.069C124.454 33.8023 124.115 33.669 123.673 33.669C123.353 33.669 123.086 33.7063 122.873 33.781C122.665 33.8557 122.481 33.941 122.321 34.037C122.161 34.1277 122.014 34.2103 121.881 34.285C121.753 34.3597 121.609 34.397 121.449 34.397C121.31 34.397 121.193 34.3623 121.097 34.293C121.001 34.2183 120.923 34.133 120.865 34.037L120.513 33.405ZM130.694 33.685C130.95 33.1943 131.254 32.8103 131.606 32.533C131.958 32.2503 132.374 32.109 132.854 32.109C133.232 32.109 133.536 32.1917 133.766 32.357L133.638 33.837C133.611 33.933 133.571 34.0023 133.518 34.045C133.47 34.0823 133.403 34.101 133.318 34.101C133.238 34.101 133.118 34.0877 132.958 34.061C132.803 34.0343 132.651 34.021 132.502 34.021C132.283 34.021 132.088 34.053 131.918 34.117C131.747 34.181 131.592 34.2743 131.454 34.397C131.32 34.5143 131.2 34.6583 131.094 34.829C130.992 34.9997 130.896 35.1943 130.806 35.413V40.469H128.83V32.261H129.99C130.192 32.261 130.334 32.2983 130.414 32.373C130.494 32.4423 130.547 32.5703 130.574 32.757L130.694 33.685ZM136.774 28.581V35.389H137.142C137.276 35.389 137.38 35.373 137.454 35.341C137.534 35.3037 137.614 35.2317 137.694 35.125L139.734 32.605C139.82 32.493 139.913 32.4077 140.014 32.349C140.121 32.2903 140.257 32.261 140.422 32.261H142.23L139.678 35.309C139.497 35.549 139.3 35.733 139.086 35.861C139.198 35.941 139.297 36.0343 139.382 36.141C139.473 36.2477 139.558 36.3623 139.638 36.485L142.374 40.469H140.59C140.436 40.469 140.302 40.445 140.19 40.397C140.078 40.3437 139.985 40.2503 139.91 40.117L137.814 37.005C137.74 36.8823 137.662 36.8023 137.582 36.765C137.502 36.7277 137.382 36.709 137.222 36.709H136.774V40.469H134.798V28.581H136.774ZM148.211 35.421C148.211 35.165 148.174 34.925 148.099 34.701C148.03 34.4717 147.923 34.2717 147.779 34.101C147.635 33.9303 147.451 33.797 147.227 33.701C147.009 33.5997 146.753 33.549 146.459 33.549C145.889 33.549 145.438 33.7117 145.107 34.037C144.782 34.3623 144.574 34.8237 144.483 35.421H148.211ZM144.443 36.613C144.475 37.0343 144.55 37.3997 144.667 37.709C144.785 38.013 144.939 38.2663 145.131 38.469C145.323 38.6663 145.55 38.8157 145.811 38.917C146.078 39.013 146.371 39.061 146.691 39.061C147.011 39.061 147.286 39.0237 147.515 38.949C147.75 38.8743 147.953 38.7917 148.123 38.701C148.299 38.6103 148.451 38.5277 148.579 38.453C148.713 38.3783 148.841 38.341 148.963 38.341C149.129 38.341 149.251 38.4023 149.331 38.525L149.899 39.245C149.681 39.501 149.435 39.717 149.163 39.893C148.891 40.0637 148.606 40.2023 148.307 40.309C148.014 40.4103 147.713 40.4823 147.403 40.525C147.099 40.5677 146.803 40.589 146.515 40.589C145.945 40.589 145.414 40.4957 144.923 40.309C144.433 40.117 144.006 39.837 143.643 39.469C143.281 39.0957 142.995 38.637 142.787 38.093C142.579 37.5437 142.475 36.909 142.475 36.189C142.475 35.629 142.566 35.1037 142.747 34.613C142.929 34.117 143.187 33.6877 143.523 33.325C143.865 32.957 144.278 32.6663 144.763 32.453C145.254 32.2397 145.806 32.133 146.419 32.133C146.937 32.133 147.414 32.2157 147.851 32.381C148.289 32.5463 148.665 32.789 148.979 33.109C149.294 33.4237 149.539 33.813 149.715 34.277C149.897 34.7357 149.987 35.261 149.987 35.853C149.987 36.1517 149.955 36.3543 149.891 36.461C149.827 36.5623 149.705 36.613 149.523 36.613H144.443ZM154.128 40.597C153.413 40.597 152.864 40.397 152.48 39.997C152.101 39.5917 151.912 39.0343 151.912 38.325V33.741H151.072C150.965 33.741 150.875 33.7063 150.8 33.637C150.725 33.5677 150.688 33.4637 150.688 33.325V32.541L152.008 32.325L152.424 30.085C152.451 29.9783 152.501 29.8957 152.576 29.837C152.651 29.7783 152.747 29.749 152.864 29.749H153.888V32.333H156.08V33.741H153.888V38.189C153.888 38.445 153.949 38.645 154.072 38.789C154.2 38.933 154.373 39.005 154.592 39.005C154.715 39.005 154.816 38.9917 154.896 38.965C154.981 38.933 155.053 38.901 155.112 38.869C155.176 38.837 155.232 38.8077 155.28 38.781C155.328 38.749 155.376 38.733 155.424 38.733C155.483 38.733 155.531 38.749 155.568 38.781C155.605 38.8077 155.645 38.8503 155.688 38.909L156.28 39.869C155.992 40.109 155.661 40.2903 155.288 40.413C154.915 40.5357 154.528 40.597 154.128 40.597ZM108.255 54.613V57.821H112.303V59.477H108.255V62.749H113.391V64.469H106.095V52.901H113.391V54.613H108.255ZM122.314 64.469H120.41C120.266 64.469 120.148 64.4317 120.058 64.357C119.972 64.2823 119.9 64.197 119.842 64.101L118.106 61.245C118.079 61.3357 118.047 61.421 118.01 61.501C117.978 61.581 117.94 61.6557 117.898 61.725L116.362 64.101C116.303 64.1917 116.231 64.277 116.146 64.357C116.06 64.4317 115.954 64.469 115.826 64.469H114.058L116.874 60.237L114.17 56.261H116.074C116.218 56.261 116.324 56.2823 116.394 56.325C116.463 56.3623 116.524 56.4263 116.578 56.517L118.298 59.253C118.356 59.0717 118.439 58.893 118.546 58.717L119.93 56.557C120.047 56.3597 120.199 56.261 120.386 56.261H122.202L119.506 60.149L122.314 64.469ZM125.321 62.341C125.545 62.613 125.788 62.805 126.049 62.917C126.316 63.029 126.604 63.085 126.913 63.085C127.212 63.085 127.481 63.029 127.721 62.917C127.961 62.805 128.164 62.6343 128.329 62.405C128.5 62.1757 128.63 61.8877 128.721 61.541C128.812 61.189 128.857 60.7757 128.857 60.301C128.857 59.821 128.817 59.4157 128.737 59.085C128.662 58.749 128.553 58.477 128.409 58.269C128.265 58.061 128.089 57.909 127.881 57.813C127.678 57.717 127.446 57.669 127.185 57.669C126.774 57.669 126.425 57.757 126.137 57.933C125.849 58.1037 125.577 58.3463 125.321 58.661V62.341ZM125.217 57.381C125.553 57.0023 125.934 56.6957 126.361 56.461C126.788 56.2263 127.289 56.109 127.865 56.109C128.313 56.109 128.721 56.2023 129.089 56.389C129.462 56.5757 129.782 56.8477 130.049 57.205C130.321 57.557 130.529 57.9943 130.673 58.517C130.822 59.0343 130.897 59.629 130.897 60.301C130.897 60.9143 130.814 61.4823 130.649 62.005C130.484 62.5277 130.246 62.981 129.937 63.365C129.633 63.749 129.262 64.0503 128.825 64.269C128.393 64.4823 127.908 64.589 127.369 64.589C126.91 64.589 126.518 64.5197 126.193 64.381C125.868 64.237 125.577 64.0397 125.321 63.789V67.149H123.345V56.261H124.553C124.809 56.261 124.977 56.381 125.057 56.621L125.217 57.381ZM137.727 59.421C137.727 59.165 137.69 58.925 137.615 58.701C137.546 58.4717 137.439 58.2717 137.295 58.101C137.151 57.9303 136.967 57.797 136.743 57.701C136.524 57.5997 136.268 57.549 135.975 57.549C135.404 57.549 134.954 57.7117 134.623 58.037C134.298 58.3623 134.09 58.8237 133.999 59.421H137.727ZM133.959 60.613C133.991 61.0343 134.066 61.3997 134.183 61.709C134.3 62.013 134.455 62.2663 134.647 62.469C134.839 62.6663 135.066 62.8157 135.327 62.917C135.594 63.013 135.887 63.061 136.207 63.061C136.527 63.061 136.802 63.0237 137.031 62.949C137.266 62.8743 137.468 62.7917 137.639 62.701C137.815 62.6103 137.967 62.5277 138.095 62.453C138.228 62.3783 138.356 62.341 138.479 62.341C138.644 62.341 138.767 62.4023 138.847 62.525L139.415 63.245C139.196 63.501 138.951 63.717 138.679 63.893C138.407 64.0637 138.122 64.2023 137.823 64.309C137.53 64.4103 137.228 64.4823 136.919 64.525C136.615 64.5677 136.319 64.589 136.031 64.589C135.46 64.589 134.93 64.4957 134.439 64.309C133.948 64.117 133.522 63.837 133.159 63.469C132.796 63.0957 132.511 62.637 132.303 62.093C132.095 61.5437 131.991 60.909 131.991 60.189C131.991 59.629 132.082 59.1037 132.263 58.613C132.444 58.117 132.703 57.6877 133.039 57.325C133.38 56.957 133.794 56.6663 134.279 56.453C134.77 56.2397 135.322 56.133 135.935 56.133C136.452 56.133 136.93 56.2157 137.367 56.381C137.804 56.5463 138.18 56.789 138.495 57.109C138.81 57.4237 139.055 57.813 139.231 58.277C139.412 58.7357 139.503 59.261 139.503 59.853C139.503 60.1517 139.471 60.3543 139.407 60.461C139.343 60.5623 139.22 60.613 139.039 60.613H133.959ZM142.85 57.685C143.106 57.1943 143.41 56.8103 143.762 56.533C144.114 56.2503 144.53 56.109 145.01 56.109C145.388 56.109 145.692 56.1917 145.922 56.357L145.794 57.837C145.767 57.933 145.727 58.0023 145.674 58.045C145.626 58.0823 145.559 58.101 145.474 58.101C145.394 58.101 145.274 58.0877 145.114 58.061C144.959 58.0343 144.807 58.021 144.658 58.021C144.439 58.021 144.244 58.053 144.074 58.117C143.903 58.181 143.748 58.2743 143.61 58.397C143.476 58.5143 143.356 58.6583 143.25 58.829C143.148 58.9997 143.052 59.1943 142.962 59.413V64.469H140.986V56.261H142.146C142.348 56.261 142.49 56.2983 142.57 56.373C142.65 56.4423 142.703 56.5703 142.73 56.757L142.85 57.685ZM149.003 56.261V64.469H147.019V56.261H149.003ZM149.275 53.869C149.275 54.0397 149.24 54.1997 149.171 54.349C149.101 54.4983 149.008 54.629 148.891 54.741C148.779 54.853 148.645 54.9437 148.491 55.013C148.336 55.077 148.171 55.109 147.995 55.109C147.824 55.109 147.661 55.077 147.507 55.013C147.357 54.9437 147.227 54.853 147.115 54.741C147.003 54.629 146.912 54.4983 146.843 54.349C146.779 54.1997 146.747 54.0397 146.747 53.869C146.747 53.693 146.779 53.5277 146.843 53.373C146.912 53.2183 147.003 53.085 147.115 52.973C147.227 52.861 147.357 52.773 147.507 52.709C147.661 52.6397 147.824 52.605 147.995 52.605C148.171 52.605 148.336 52.6397 148.491 52.709C148.645 52.773 148.779 52.861 148.891 52.973C149.008 53.085 149.101 53.2183 149.171 53.373C149.24 53.5277 149.275 53.693 149.275 53.869ZM156.305 59.421C156.305 59.165 156.268 58.925 156.193 58.701C156.124 58.4717 156.017 58.2717 155.873 58.101C155.729 57.9303 155.545 57.797 155.321 57.701C155.102 57.5997 154.846 57.549 154.553 57.549C153.982 57.549 153.532 57.7117 153.201 58.037C152.876 58.3623 152.668 58.8237 152.577 59.421H156.305ZM152.537 60.613C152.569 61.0343 152.644 61.3997 152.761 61.709C152.878 62.013 153.033 62.2663 153.225 62.469C153.417 62.6663 153.644 62.8157 153.905 62.917C154.172 63.013 154.465 63.061 154.785 63.061C155.105 63.061 155.38 63.0237 155.609 62.949C155.844 62.8743 156.046 62.7917 156.217 62.701C156.393 62.6103 156.545 62.5277 156.673 62.453C156.806 62.3783 156.934 62.341 157.057 62.341C157.222 62.341 157.345 62.4023 157.425 62.525L157.993 63.245C157.774 63.501 157.529 63.717 157.257 63.893C156.985 64.0637 156.7 64.2023 156.401 64.309C156.108 64.4103 155.806 64.4823 155.497 64.525C155.193 64.5677 154.897 64.589 154.609 64.589C154.038 64.589 153.508 64.4957 153.017 64.309C152.526 64.117 152.1 63.837 151.737 63.469C151.374 63.0957 151.089 62.637 150.881 62.093C150.673 61.5437 150.569 60.909 150.569 60.189C150.569 59.629 150.66 59.1037 150.841 58.613C151.022 58.117 151.281 57.6877 151.617 57.325C151.958 56.957 152.372 56.6663 152.857 56.453C153.348 56.2397 153.9 56.133 154.513 56.133C155.03 56.133 155.508 56.2157 155.945 56.381C156.382 56.5463 156.758 56.789 157.073 57.109C157.388 57.4237 157.633 57.813 157.809 58.277C157.99 58.7357 158.081 59.261 158.081 59.853C158.081 60.1517 158.049 60.3543 157.985 60.461C157.921 60.5623 157.798 60.613 157.617 60.613H152.537ZM161.412 57.269C161.577 57.1037 161.751 56.9517 161.932 56.813C162.119 56.669 162.313 56.549 162.516 56.453C162.724 56.3517 162.945 56.2743 163.18 56.221C163.415 56.1623 163.671 56.133 163.948 56.133C164.396 56.133 164.793 56.2103 165.14 56.365C165.487 56.5143 165.775 56.7277 166.004 57.005C166.239 57.277 166.415 57.605 166.532 57.989C166.655 58.3677 166.716 58.7863 166.716 59.245V64.469H164.74V59.245C164.74 58.7437 164.625 58.357 164.396 58.085C164.167 57.8077 163.817 57.669 163.348 57.669C163.007 57.669 162.687 57.7463 162.388 57.901C162.089 58.0557 161.807 58.2663 161.54 58.533V64.469H159.564V56.261H160.772C161.028 56.261 161.196 56.381 161.276 56.621L161.412 57.269ZM174.475 57.997C174.416 58.0717 174.358 58.1303 174.299 58.173C174.246 58.2157 174.166 58.237 174.059 58.237C173.958 58.237 173.859 58.2077 173.763 58.149C173.667 58.085 173.552 58.0157 173.419 57.941C173.286 57.861 173.126 57.7917 172.939 57.733C172.758 57.669 172.531 57.637 172.259 57.637C171.912 57.637 171.608 57.701 171.347 57.829C171.086 57.9517 170.867 58.1303 170.691 58.365C170.52 58.5997 170.392 58.885 170.307 59.221C170.222 59.5517 170.179 59.9277 170.179 60.349C170.179 60.7863 170.224 61.1757 170.315 61.517C170.411 61.8583 170.547 62.1463 170.723 62.381C170.899 62.6103 171.112 62.7863 171.363 62.909C171.614 63.0263 171.896 63.085 172.211 63.085C172.526 63.085 172.779 63.0477 172.971 62.973C173.168 62.893 173.334 62.8077 173.467 62.717C173.6 62.621 173.715 62.5357 173.811 62.461C173.912 62.381 174.024 62.341 174.147 62.341C174.307 62.341 174.427 62.4023 174.507 62.525L175.075 63.245C174.856 63.501 174.619 63.717 174.363 63.893C174.107 64.0637 173.84 64.2023 173.563 64.309C173.291 64.4103 173.008 64.4823 172.715 64.525C172.427 64.5677 172.139 64.589 171.851 64.589C171.344 64.589 170.867 64.4957 170.419 64.309C169.971 64.117 169.579 63.8397 169.243 63.477C168.907 63.1143 168.64 62.6717 168.443 62.149C168.251 61.621 168.155 61.021 168.155 60.349C168.155 59.7463 168.24 59.189 168.411 58.677C168.587 58.1597 168.843 57.7143 169.179 57.341C169.515 56.9623 169.931 56.6663 170.427 56.453C170.923 56.2397 171.494 56.133 172.139 56.133C172.752 56.133 173.288 56.2317 173.747 56.429C174.211 56.6263 174.627 56.909 174.995 57.277L174.475 57.997ZM181.461 59.421C181.461 59.165 181.424 58.925 181.349 58.701C181.28 58.4717 181.173 58.2717 181.029 58.101C180.885 57.9303 180.701 57.797 180.477 57.701C180.259 57.5997 180.003 57.549 179.709 57.549C179.139 57.549 178.688 57.7117 178.357 58.037C178.032 58.3623 177.824 58.8237 177.733 59.421H181.461ZM177.693 60.613C177.725 61.0343 177.8 61.3997 177.917 61.709C178.035 62.013 178.189 62.2663 178.381 62.469C178.573 62.6663 178.8 62.8157 179.061 62.917C179.328 63.013 179.621 63.061 179.941 63.061C180.261 63.061 180.536 63.0237 180.765 62.949C181 62.8743 181.203 62.7917 181.373 62.701C181.549 62.6103 181.701 62.5277 181.829 62.453C181.963 62.3783 182.091 62.341 182.213 62.341C182.379 62.341 182.501 62.4023 182.581 62.525L183.149 63.245C182.931 63.501 182.685 63.717 182.413 63.893C182.141 64.0637 181.856 64.2023 181.557 64.309C181.264 64.4103 180.963 64.4823 180.653 64.525C180.349 64.5677 180.053 64.589 179.765 64.589C179.195 64.589 178.664 64.4957 178.173 64.309C177.683 64.117 177.256 63.837 176.893 63.469C176.531 63.0957 176.245 62.637 176.037 62.093C175.829 61.5437 175.725 60.909 175.725 60.189C175.725 59.629 175.816 59.1037 175.997 58.613C176.179 58.117 176.437 57.6877 176.773 57.325C177.115 56.957 177.528 56.6663 178.013 56.453C178.504 56.2397 179.056 56.133 179.669 56.133C180.187 56.133 180.664 56.2157 181.101 56.381C181.539 56.5463 181.915 56.789 182.229 57.109C182.544 57.4237 182.789 57.813 182.965 58.277C183.147 58.7357 183.237 59.261 183.237 59.853C183.237 60.1517 183.205 60.3543 183.141 60.461C183.077 60.5623 182.955 60.613 182.773 60.613H177.693ZM189.728 57.861C189.675 57.9463 189.619 58.0077 189.56 58.045C189.501 58.077 189.427 58.093 189.336 58.093C189.24 58.093 189.136 58.0663 189.024 58.013C188.917 57.9597 188.792 57.901 188.648 57.837C188.504 57.7677 188.339 57.7063 188.152 57.653C187.971 57.5997 187.755 57.573 187.504 57.573C187.115 57.573 186.808 57.6557 186.584 57.821C186.365 57.9863 186.256 58.2023 186.256 58.469C186.256 58.645 186.312 58.7943 186.424 58.917C186.541 59.0343 186.693 59.1383 186.88 59.229C187.072 59.3197 187.288 59.4023 187.528 59.477C187.768 59.5463 188.011 59.6237 188.256 59.709C188.507 59.7943 188.752 59.893 188.992 60.005C189.232 60.1117 189.445 60.2503 189.632 60.421C189.824 60.5863 189.976 60.7863 190.088 61.021C190.205 61.2557 190.264 61.5383 190.264 61.869C190.264 62.2637 190.192 62.629 190.048 62.965C189.909 63.2957 189.701 63.5837 189.424 63.829C189.147 64.069 188.803 64.2583 188.392 64.397C187.987 64.5303 187.517 64.597 186.984 64.597C186.701 64.597 186.424 64.5703 186.152 64.517C185.885 64.469 185.627 64.3997 185.376 64.309C185.131 64.2183 184.901 64.1117 184.688 63.989C184.48 63.8663 184.296 63.733 184.136 63.589L184.592 62.837C184.651 62.7463 184.72 62.677 184.8 62.629C184.88 62.581 184.981 62.557 185.104 62.557C185.227 62.557 185.341 62.5917 185.448 62.661C185.56 62.7303 185.688 62.805 185.832 62.885C185.976 62.965 186.144 63.0397 186.336 63.109C186.533 63.1783 186.781 63.213 187.08 63.213C187.315 63.213 187.515 63.1863 187.68 63.133C187.851 63.0743 187.989 62.9997 188.096 62.909C188.208 62.8183 188.288 62.7143 188.336 62.597C188.389 62.4743 188.416 62.349 188.416 62.221C188.416 62.029 188.357 61.8717 188.24 61.749C188.128 61.6263 187.976 61.5197 187.784 61.429C187.597 61.3383 187.381 61.2583 187.136 61.189C186.896 61.1143 186.648 61.0343 186.392 60.949C186.141 60.8637 185.893 60.765 185.648 60.653C185.408 60.5357 185.192 60.389 185 60.213C184.813 60.037 184.661 59.821 184.544 59.565C184.432 59.309 184.376 58.9997 184.376 58.637C184.376 58.301 184.443 57.981 184.576 57.677C184.709 57.373 184.904 57.109 185.16 56.885C185.421 56.6557 185.744 56.4743 186.128 56.341C186.517 56.2023 186.965 56.133 187.472 56.133C188.037 56.133 188.552 56.2263 189.016 56.413C189.48 56.5997 189.867 56.845 190.176 57.149L189.728 57.861Z" fill="#181818"/>
<path d="M94.5167 47.4061C94.5167 73.4209 73.4275 94.5101 47.4126 94.5101C21.3978 94.5101 0.308594 73.4209 0.308594 47.4061C0.308594 21.3912 21.3978 0.302002 47.4126 0.302002C73.4275 0.302002 94.5167 21.3912 94.5167 47.4061ZM5.019 47.4061C5.019 70.8194 23.9993 89.7997 47.4126 89.7997C70.826 89.7997 89.8063 70.8194 89.8063 47.4061C89.8063 23.9927 70.826 5.01241 47.4126 5.01241C23.9993 5.01241 5.019 23.9927 5.019 47.4061Z" fill="#F1F1F1"/>
<path d="M47.4126 2.65721C47.4126 1.35646 48.468 0.29586 49.7671 0.360852C59.5628 0.850916 68.9838 4.38927 76.6967 10.5111C85.0258 17.1221 90.873 26.3568 93.287 36.7131C95.7009 47.0694 94.5396 57.9378 89.992 67.5502C85.4444 77.1626 77.7781 84.9535 68.2402 89.6554C58.7023 94.3573 47.854 95.6935 37.4602 93.4467C27.0664 91.1999 17.7386 85.5023 10.9943 77.2807C4.25001 69.0592 0.486038 58.7975 0.314708 48.165C0.156054 38.3191 3.08675 28.6918 8.66354 20.6236C9.40313 19.5536 10.8871 19.3624 11.9188 20.1545C12.9505 20.9467 13.1387 22.4218 12.4051 23.4959C7.47263 30.7174 4.88299 39.3066 5.0245 48.0891C5.1787 57.6583 8.56628 66.8939 14.6362 74.2933C20.706 81.6927 29.101 86.8205 38.4555 88.8426C47.8099 90.8647 57.5733 89.6621 66.1574 85.4304C74.7416 81.1987 81.6413 74.187 85.7341 65.5358C89.8269 56.8846 90.8721 47.1031 88.6995 37.7824C86.527 28.4618 81.2645 20.1505 73.7683 14.2006C66.8884 8.73996 58.4985 5.56327 49.7668 5.0778C48.4681 5.00559 47.4126 3.95795 47.4126 2.65721Z" fill="#4EAF4E"/>
<circle cx="12.4935" cy="19.7609" r="6.18981" fill="white" stroke="#4EAF4E" stroke-width="4"/>
</svg>
