<?xml version="1.0" encoding="iso-8859-1"?>
<!-- Uploaded to: SVG Repo, www.svgrepo.com, Generator: SVG Repo Mixer Tools -->
<svg version="1.1" id="Layer_1" xmlns="http://www.w3.org/2000/svg" xmlns:xlink="http://www.w3.org/1999/xlink" 
	 viewBox="0 0 512 512" xml:space="preserve">
<path style="fill:#FFC61B;" d="M430.594,378.955h-73.146c-7.622,0-13.801-6.179-13.801-13.801V140.488H168.354v155.659
	c0,7.622-6.179,13.801-13.801,13.801s-13.801-6.179-13.801-13.801v-169.46c0-7.622,6.179-13.801,13.801-13.801h202.895
	c7.622,0,13.801,6.179,13.801,13.801v224.665h59.345c7.622,0,13.801,6.179,13.801,13.801
	C444.395,372.776,438.216,378.955,430.594,378.955z"/>
<g>
	<path style="fill:#FEE187;" d="M430.594,126.687v168.475c38.307-6.027,67.606-39.176,67.606-79.175v-89.3H430.594z"/>
	<rect x="154.546" y="126.694" style="fill:#FEE187;" width="202.891" height="169.465"/>
	<path style="fill:#FEE187;" d="M81.406,126.687H13.801v89.3c0,40,29.3,73.148,67.606,79.175V126.687H81.406z"/>
</g>
<path style="fill:#FFC61B;" d="M498.199,112.886h-53.804v-5.827c0-7.622-6.179-13.801-13.801-13.801h-73.146
	c-7.622,0-13.801,6.179-13.801,13.801v5.827h-13.58V45.269c0-7.622-6.179-13.801-13.801-13.801h-120.53
	c-7.622,0-13.801,6.179-13.801,13.801v67.617h-13.58v-5.827c0-7.622-6.179-13.801-13.801-13.801H81.406
	c-7.622,0-13.801,6.179-13.801,13.801v5.827H13.801C6.179,112.886,0,119.065,0,126.687v89.3v250.744
	c0,7.622,6.179,13.801,13.801,13.801h484.398c7.622,0,13.801-6.179,13.801-13.801V215.988v-89.3
	C512,119.065,505.821,112.886,498.199,112.886z M484.398,140.488v75.499c0,27.192-16.095,50.748-40.003,60.968V140.488H484.398z
	 M209.536,59.07h92.927v53.816h-92.927L209.536,59.07L209.536,59.07z M343.646,140.488v141.858H168.354V140.488H343.646z
	 M27.602,140.488h40.003v136.467c-23.908-10.22-40.003-33.777-40.003-60.968V140.488z M269.802,452.929v-83.643
	c0-7.622-6.179-13.801-13.801-13.801s-13.801,6.179-13.801,13.801v83.643H27.602V282.475c11.175,11.146,24.95,19.3,40.003,23.701
	v58.978c0,7.622,6.179,13.801,13.801,13.801h73.146c7.622,0,13.801-6.179,13.801-13.801c0-7.622-6.179-13.801-13.801-13.801H95.207
	v-56.19V126.687v-5.827h45.544v5.827v169.46l0,0c0,7.622,6.179,13.801,13.801,13.801c0.004,0,0.008,0,0.014,0h189.08v55.205
	c0,7.622,6.179,13.801,13.801,13.801h73.146c7.622,0,13.801-6.179,13.801-13.801c0-7.622-6.179-13.801-13.801-13.801h-59.345
	v-55.205v-169.46v-5.827h45.544v5.827v166.219v2.257c0,4.035,1.765,7.868,4.832,10.49c2.517,2.153,5.703,3.311,8.969,3.311
	c0.714,0,1.431-0.055,2.145-0.168c19.563-3.078,37.655-12.352,51.659-26.32v170.454H269.802z"/>
</svg>